Coordinates
version=1
nRows=8
nColumns=40
inDegrees=yes

Units are S.I. units (second, meters, Newtons, ...)
If the header above contains a line with 'inDegrees', this indicates whether rotational values are in degrees (yes) or radians (no).

endheader
time	pelvis_tilt	pelvis_list	pelvis_rotation	pelvis_tx	pelvis_ty	pelvis_tz	hip_flexion_r	hip_adduction_r	hip_rotation_r	knee_angle_r	knee_angle_r_beta	ankle_angle_r	subtalar_angle_r	mtp_angle_r	hip_flexion_l	hip_adduction_l	hip_rotation_l	knee_angle_l	knee_angle_l_beta	ankle_angle_l	subtalar_angle_l	mtp_angle_l	lumbar_extension	lumbar_bending	lumbar_rotation	arm_flex_r	arm_add_r	arm_rot_r	elbow_flex_r	pro_sup_r	wrist_flex_r	wrist_dev_r	arm_flex_l	arm_add_l	arm_rot_l	elbow_flex_l	pro_sup_l	wrist_flex_l	wrist_dev_l
      2.59000000	     -3.78548251	      9.14882926	    -89.89063342	      0.25147215	      0.90934360	      0.52783876	     -4.49389674	      9.99409681	     -3.88660811	      6.19080173	      0.10804987	     12.04786553	     -0.00000000	      0.00000000	     33.31394981	     -0.87435334	     -1.70613914	      1.35072211	      0.02357455	     -0.01857195	     -0.00000000	      0.00000000	      3.09329773	      4.28753716	     -2.64042753	     -0.00000000	      0.00000000	      0.00000000	      0.00000000	      0.00000000	      0.00000000	     -0.00000000	      0.00000000	      0.00000000	      0.00000000	      0.00000000	      0.00000000	     -0.00000000	     -0.00000000
      2.60000000	     -3.59103949	      9.27607477	    -89.89312178	      0.25183337	      0.90823091	      0.53698284	     -4.88451212	      9.72411468	     -3.88359176	      6.39686383	      0.11164634	     12.21472894	      0.00000000	      0.00000000	     33.44529114	     -0.55243122	     -1.67460399	      1.79338215	      0.03130042	     -0.46030789	      0.00000000	      0.00000000	      3.29188207	      4.01818673	     -2.71477076	      0.00000000	      0.00000000	      0.00000000	      0.00000000	      0.00000000	      0.00000000	      0.00000000	      0.00000000	      0.00000000	      0.00000000	      0.00000000	      0.00000000	      0.00000000	      0.00000000
      2.61000000	     -3.33920705	      9.34535240	    -89.89630131	      0.25225270	      0.90729389	      0.54628162	     -5.28962832	      9.37939112	     -3.93783900	      6.69771477	      0.11689718	     12.42847125	     -0.00000000	     -0.00000000	     33.49394570	     -0.18908869	     -1.81122706	      2.33777418	      0.04080186	     -1.06806146	     -0.00000000	     -0.00000000	      3.43224439	      3.68259794	     -2.79725597	     -0.00000000	     -0.00000000	     -0.00000000	      0.00000000	      0.00000000	     -0.00000000	     -0.00000000	     -0.00000000	      0.00000000	      0.00000000	      0.00000000	      0.00000000	     -0.00000000	     -0.00000000
      2.62000000	     -3.11667557	      9.47056131	    -89.89784752	      0.25270197	      0.90635511	      0.55563358	     -5.59841008	      9.05682417	     -3.97520919	      7.05777029	      0.12318133	     12.39445960	      0.00000000	      0.00000000	     33.61124708	      0.14042787	     -1.61896022	      3.02336536	      0.05276768	     -1.63895614	      0.00000000	      0.00000000	      3.64570541	      3.38094997	     -2.87054041	      0.00000000	      0.00000000	      0.00000000	      0.00000000	      0.00000000	      0.00000000	      0.00000000	      0.00000000	      0.00000000	      0.00000000	      0.00000000	      0.00000000	      0.00000000	      0.00000000
      2.63000000	     -2.82870793	      9.54300666	    -89.90038858	      0.25315768	      0.90557320	      0.56515871	     -5.88331259	      8.64226475	     -4.16308266	      7.57703359	      0.13224418	     12.44309608	      0.00000000	      0.00000000	     33.68722869	      0.50910199	     -1.78013191	      3.83905054	      0.06700407	     -2.40926247	      0.00000000	      0.00000000	      3.80824416	      2.99307041	     -2.96114711	      0.00000000	      0.00000000	      0.00000000	      0.00000000	      0.00000000	      0.00000000	      0.00000000	      0.00000000	      0.00000000	      0.00000000	      0.00000000	      0.00000000	      0.00000000	      0.00000000
      2.64000000	     -2.56471227	      9.62512484	    -89.90192222	      0.25368478	      0.90490506	      0.57473162	     -6.11860769	      8.24643451	     -4.27088676	      8.14990584	      0.14224269	     12.25833503	      0.00000000	      0.00000000	     33.76744537	      0.85638105	     -1.65294116	      4.74638945	      0.08284012	     -3.14850759	      0.00000000	      0.00000000	      3.98795378	      2.65041964	     -3.03825640	      0.00000000	      0.00000000	      0.00000000	      0.00000000	      0.00000000	      0.00000000	      0.00000000	      0.00000000	      0.00000000	      0.00000000	      0.00000000	      0.00000000	      0.00000000	      0.00000000
      2.65000000	     -2.30009153	      9.68585098	    -89.90411802	      0.25423109	      0.90435445	      0.58440966	     -6.28881784	      7.82168073	     -4.48325720	      8.88568161	      0.15508440	     12.00710781	     -0.00000000	      0.00000000	     33.82163318	      1.18597073	     -1.70745008	      5.70737373	      0.09961246	     -3.90476330	     -0.00000000	      0.00000000	      4.14662738	      2.30616307	     -3.12196968	     -0.00000000	     -0.00000000	      0.00000000	      0.00000000	      0.00000000	     -0.00000000	      0.00000000	      0.00000000	     -0.00000000	      0.00000000	      0.00000000	      0.00000000	     -0.00000000	      0.00000000
      2.66000000	     -2.09081369	      9.73481583	    -89.90512801	      0.25476437	      0.90397339	      0.59418624	     -6.47148264	      7.47153162	     -4.41545118	      9.60401039	      0.16762160	     11.53009240	     -0.00000000	      0.00000000	     33.80757660	      1.47297022	     -1.38970054	      6.64291565	      0.11594075	     -4.54515155	     -0.00000000	      0.00000000	      4.30657381	      2.01763754	     -3.20493346	      0.00000000	      0.00000000	     -0.00000000	      0.00000000	      0.00000000	      0.00000000	     -0.00000000	      0.00000000	      0.00000000	      0.00000000	      0.00000000	      0.00000000	      0.00000000	     -0.00000000
